<svg id="visual" viewBox="0 0 900 600" width="900" height="600" xmlns="http://www.w3.org/2000/svg" xmlns:xlink="http://www.w3.org/1999/xlink" version="1.1"><rect x="0" y="0" width="900" height="600" fill="#fff"></rect><path d="M0 364L25 365.3C50 366.7 100 369.3 150 365.7C200 362 250 352 300 356.2C350 360.3 400 378.7 450 394.2C500 409.7 550 422.3 600 426.2C650 430 700 425 750 405.7C800 386.3 850 352.7 875 335.8L900 319L900 601L875 601C850 601 800 601 750 601C700 601 650 601 600 601C550 601 500 601 450 601C400 601 350 601 300 601C250 601 200 601 150 601C100 601 50 601 25 601L0 601Z" fill="#ffe500" stroke-linecap="round" stroke-linejoin="miter"></path></svg>